<svg width="146" height="40" viewBox="0 0 146 40" fill="none" xmlns="http://www.w3.org/2000/svg">
<g clip-path="url(#clip0_10_23)">
<path d="M57.846 15.2793H59.8228V24.636H57.846V23.2885C57.0951 24.3554 56.0334 24.8793 54.6424 24.8793C53.3792 24.8793 52.3173 24.4115 51.4203 23.4571C50.5232 22.5027 50.084 21.3238 50.084 19.9579C50.084 18.5729 50.5232 17.4127 51.4203 16.4583C52.3173 15.5038 53.3792 15.0361 54.6424 15.0361C56.0334 15.0361 57.0951 15.56 57.846 16.6081V15.2793ZM54.9536 22.9519C55.7773 22.9519 56.4726 22.6713 57.0222 22.1097C57.5714 21.5296 57.846 20.8186 57.846 19.9579C57.846 19.0969 57.5714 18.3859 57.0222 17.8244C56.4726 17.2443 55.7773 16.9636 54.9536 16.9636C54.1294 16.9636 53.4339 17.2443 52.8847 17.8244C52.3356 18.3859 52.061 19.0969 52.061 19.9579C52.061 20.8186 52.3356 21.5296 52.8847 22.1097C53.4339 22.6713 54.1294 22.9519 54.9536 22.9519Z" fill="#231F20"/>
<path d="M65.4619 19.0783C66.8715 19.3964 68.7021 19.9953 68.6655 21.9976C68.6655 22.8957 68.3176 23.6067 67.6404 24.1121C66.9632 24.6173 66.121 24.8793 65.0959 24.8793C63.2833 24.8793 61.9471 24.0559 61.3613 22.6897L63.064 21.6793C63.3752 22.5777 64.0524 23.0266 65.0959 23.0266C66.1391 23.0266 66.652 22.6713 66.652 21.9788C66.652 21.3799 65.8831 21.0243 64.9127 20.7812C63.5398 20.4255 61.6907 19.8642 61.7273 17.8991C61.7273 17.0384 62.0385 16.3462 62.6795 15.822C63.32 15.2981 64.1256 15.0361 65.0774 15.0361C66.5969 15.0361 67.8236 15.7661 68.4642 16.9824L66.7982 17.9366C66.4869 17.2257 65.9012 16.8701 65.0774 16.8701C64.327 16.8701 63.7412 17.207 63.7412 17.862C63.7412 18.4795 64.5101 18.7977 65.4619 19.0783Z" fill="#231F20"/>
<path d="M75.4302 17.2243H73.1603V21.7154C73.1603 22.9132 73.9293 22.8944 75.4302 22.8195V24.6347C72.4099 25.0091 71.1835 24.167 71.1835 21.7154V17.2243H69.499V15.278H71.1835V13.2571L73.1603 12.6582V15.278H75.4302V17.2243Z" fill="#231F20"/>
<path d="M84.0598 15.2793H86.0371V24.636H84.0598V23.2885C83.3094 24.3554 82.2477 24.8793 80.8563 24.8793C79.5933 24.8793 78.5316 24.4115 77.6346 23.4571C76.7376 22.5027 76.2979 21.3238 76.2979 19.9579C76.2979 18.5729 76.7376 17.4127 77.6346 16.4583C78.5316 15.5038 79.5933 15.0361 80.8563 15.0361C82.2477 15.0361 83.3094 15.56 84.0598 16.6081V15.2793ZM81.1675 22.9519C81.9912 22.9519 82.687 22.6713 83.2361 22.1097C83.7852 21.5296 84.0598 20.8186 84.0598 19.9579C84.0598 19.0969 83.7852 18.3859 83.2361 17.8244C82.687 17.2443 81.9912 16.9636 81.1675 16.9636C80.3437 16.9636 79.648 17.2443 79.0988 17.8244C78.5497 18.3859 78.2751 19.0969 78.2751 19.9579C78.2751 20.8186 78.5497 21.5296 79.0988 22.1097C79.648 22.6713 80.3437 22.9519 81.1675 22.9519Z" fill="#231F20"/>
<path d="M96.5402 18.8911V24.636H94.5629V19.0969C94.5629 17.6934 93.7758 16.9263 92.5129 16.9263C91.1214 16.9263 90.1877 17.8058 90.1877 19.621V24.636H88.2109V15.2793H90.1877V16.477C90.7921 15.5226 91.7257 15.0361 93.0253 15.0361C95.1306 15.0361 96.5402 16.4957 96.5402 18.8911Z" fill="#231F20"/>
<path d="M105.822 15.2793H107.799V24.636H105.822V23.2885C105.071 24.3554 104.009 24.8793 102.618 24.8793C101.355 24.8793 100.293 24.4115 99.3963 23.4571C98.4993 22.5027 98.0596 21.3238 98.0596 19.9579C98.0596 18.5729 98.4993 17.4127 99.3963 16.4583C100.293 15.5038 101.355 15.0361 102.618 15.0361C104.009 15.0361 105.071 15.56 105.822 16.6081V15.2793ZM102.929 22.9519C103.753 22.9519 104.449 22.6713 104.998 22.1097C105.547 21.5296 105.822 20.8186 105.822 19.9579C105.822 19.0969 105.547 18.3859 104.998 17.8244C104.449 17.2443 103.753 16.9636 102.929 16.9636C102.105 16.9636 101.41 17.2443 100.861 17.8244C100.311 18.3859 100.037 19.0969 100.037 19.9579C100.037 20.8186 100.311 21.5296 100.861 22.1097C101.41 22.6713 102.105 22.9519 102.929 22.9519Z" fill="#231F20"/>
<path d="M123.013 18.8907V24.6357H121.036V19.0965C121.036 17.6931 120.249 16.9259 118.986 16.9259C117.594 16.9259 116.66 17.8054 116.66 19.6207V24.6357H114.684V11.5364H116.66V16.4767C117.265 15.5222 118.198 15.0358 119.498 15.0358C121.603 15.0358 123.013 16.4954 123.013 18.8907Z" fill="#231F20"/>
<path d="M131.258 15.2786H133.235V24.6353H131.258V23.4376C130.654 24.392 129.721 24.8785 128.421 24.8785C126.316 24.8785 124.906 23.419 124.906 21.0236V15.2786H126.883V20.8178C126.883 22.2212 127.671 22.9886 128.934 22.9886C130.325 22.9886 131.258 22.1088 131.258 20.2936V15.2786Z" fill="#231F20"/>
<path d="M143.803 16.4579C144.7 17.4124 145.139 18.5726 145.139 19.9575C145.139 21.3235 144.7 22.5024 143.803 23.4568C142.906 24.4112 141.844 24.8789 140.581 24.8789C139.19 24.8789 138.128 24.355 137.377 23.2882V24.6357H135.4V11.5364H137.377V16.6078C138.128 15.5597 139.19 15.0358 140.581 15.0358C141.844 15.0358 142.906 15.5036 143.803 16.4579ZM140.27 22.9516C141.093 22.9516 141.789 22.6709 142.338 22.1093C142.887 21.5292 143.162 20.8182 143.162 19.9575C143.162 19.0965 142.887 18.3855 142.338 17.8242C141.789 17.2441 141.093 16.9634 140.27 16.9634C139.446 16.9634 138.75 17.2441 138.201 17.8242C137.652 18.3855 137.377 19.0965 137.377 19.9575C137.377 20.8182 137.652 21.5292 138.201 22.1093C138.75 22.6709 139.446 22.9516 140.27 22.9516Z" fill="#231F20"/>
<path d="M37.5787 25.4625C37.5495 25.5657 37.5197 25.6686 37.4889 25.7711L37.4592 25.8691C37.4214 25.9924 37.3823 26.115 37.3422 26.2373L37.3148 26.3208C37.2727 26.4469 37.2294 26.5726 37.1849 26.6976L37.1537 26.7849C37.1094 26.9079 37.0638 27.0302 37.0172 27.1521L36.9818 27.2437C36.9346 27.3652 36.8864 27.4862 36.8368 27.6065L36.7992 27.6969C36.7511 27.8123 36.7019 27.9271 36.6518 28.0413L36.6095 28.1367C36.5595 28.2488 36.5085 28.3604 36.4565 28.4715L36.4097 28.5708C36.358 28.68 36.3052 28.7885 36.2515 28.8964L36.2007 28.998C36.1459 29.1066 36.09 29.2147 36.0334 29.3221L35.9835 29.4164C35.9247 29.5265 35.8648 29.6359 35.8039 29.7447L35.749 29.8423C35.6884 29.9493 35.6269 30.0556 35.5645 30.1613L35.5075 30.2568C35.4465 30.3588 35.3846 30.4603 35.3217 30.5611L35.2572 30.6639C35.1959 30.7609 35.1338 30.8574 35.0708 30.9534L34.9988 31.0623C34.936 31.1568 34.8723 31.2505 34.8078 31.3438L34.7322 31.4527C34.6672 31.5454 34.6015 31.6375 34.5349 31.7291L34.4583 31.8341C34.3907 31.9259 34.3222 32.0171 34.2531 32.1077L34.1723 32.2129C34.1014 32.3046 34.0296 32.3956 33.9571 32.486L33.8754 32.5871C33.8071 32.6711 33.738 32.7545 33.6684 32.8373C33.6355 32.8764 33.6026 32.9154 33.5694 32.954C33.5023 33.0327 33.4345 33.1107 33.3661 33.1884L33.2542 33.3142C33.1871 33.3891 33.1193 33.4634 33.0511 33.5372C33.0125 33.5789 32.9737 33.6206 32.9347 33.662C32.8658 33.7353 32.7963 33.8081 32.7263 33.8802C32.6882 33.9195 32.65 33.9584 32.6116 33.9974C32.5379 34.0722 32.4636 34.1463 32.3887 34.2199L32.2903 34.3161C32.2096 34.3941 32.1282 34.4715 32.0463 34.5482C32.007 34.585 31.9672 34.6216 31.9276 34.658C31.8543 34.7255 31.7805 34.7926 31.7061 34.8589C31.666 34.8948 31.6256 34.9305 31.5851 34.966C31.5104 35.0316 31.4352 35.0967 31.3595 35.161C31.3183 35.1961 31.2769 35.2313 31.2355 35.2659C31.1572 35.3315 31.0785 35.3961 30.9992 35.4604C30.9606 35.4918 30.9219 35.5231 30.8829 35.5542C30.8018 35.6189 30.72 35.6829 30.6378 35.7464C30.5892 35.7839 30.5405 35.8212 30.4916 35.8583C30.4147 35.9166 30.3373 35.9742 30.2595 36.0314C30.2114 36.0666 30.1631 36.1017 30.1147 36.1367C30.0352 36.194 29.9552 36.2506 29.8747 36.3067C29.8247 36.3417 29.7744 36.3763 29.724 36.4107C29.6389 36.469 29.5534 36.5266 29.4673 36.5835C29.4247 36.6117 29.3818 36.6395 29.3389 36.6674C29.2474 36.7267 29.1555 36.7856 29.063 36.8435C29.0235 36.8683 28.9836 36.8927 28.9439 36.9171C28.8526 36.9733 28.7609 37.0288 28.6686 37.0835L28.5485 37.1539C28.4543 37.2089 28.3596 37.263 28.2644 37.3164L28.1492 37.3804C28.0504 37.4347 27.9511 37.4883 27.8514 37.541L27.7443 37.5973C27.6383 37.6525 27.5318 37.7065 27.4248 37.7597L27.3371 37.8033C27.224 37.8587 27.1101 37.9129 26.9957 37.9662L26.9029 38.0093C26.784 38.064 26.6644 38.1174 26.5442 38.1697L26.4669 38.203C26.3448 38.2555 26.222 38.3068 26.0987 38.3568L26.0239 38.3866C25.9032 38.4349 25.7819 38.4821 25.6601 38.528L25.5842 38.5562C25.4622 38.6015 25.3396 38.6456 25.2165 38.6886L25.1422 38.7141C25.0178 38.7569 24.8926 38.7984 24.7671 38.8386L24.6946 38.8617C24.568 38.9017 24.4407 38.9404 24.313 38.9778L24.2425 38.9984C24.1113 39.0363 23.9795 39.0728 23.8472 39.1079L23.7876 39.1238C23.6464 39.1607 23.5047 39.196 23.3624 39.2297L23.3348 39.2364C23.1827 39.2722 23.03 39.3063 22.8765 39.3384L22.862 39.3414C22.7119 39.3727 22.5612 39.4022 22.4099 39.4299L22.3725 39.4366C22.2276 39.4628 22.0821 39.4875 21.9362 39.5105L21.8896 39.5176C21.7462 39.5399 21.6024 39.5605 21.458 39.5794L21.4071 39.5859C21.2631 39.6045 21.1187 39.6213 20.9739 39.6366L20.924 39.6417C20.7772 39.6568 20.6299 39.67 20.4821 39.6818L20.4392 39.6852C20.2877 39.6969 20.1356 39.7066 19.9831 39.7147L19.9526 39.7164C19.7943 39.7246 19.6354 39.7306 19.4762 39.7349L19.4632 39.7354C19.2983 39.7397 19.133 39.7417 18.9671 39.7417C18.8013 39.7417 18.636 39.7397 18.4711 39.7354L18.4579 39.7349C18.2987 39.7307 18.1401 39.7245 17.9819 39.7164L17.9508 39.7147C17.7985 39.7067 17.6467 39.6969 17.4952 39.6852L17.452 39.6818C17.3043 39.6701 17.1572 39.6567 17.0105 39.6417L16.9601 39.6365C16.8153 39.6213 16.671 39.6044 16.5272 39.5859L16.4763 39.5794C16.3319 39.5604 16.1881 39.5399 16.0447 39.5176L15.9981 39.5105C15.8526 39.4877 15.7077 39.463 15.5633 39.4369L15.5237 39.4298C15.3733 39.4022 15.2234 39.3729 15.0742 39.3417L15.057 39.3382C14.9041 39.3061 14.7519 39.2723 14.6004 39.2366L14.5702 39.2293C14.4284 39.1958 14.2873 39.1605 14.1467 39.1238L14.087 39.1079C13.9547 39.0728 13.8229 39.0363 13.6918 38.9984L13.6212 38.9778C13.4939 38.9406 13.3671 38.902 13.2408 38.8621L13.1667 38.8384C13.0419 38.7984 12.9176 38.7573 12.7939 38.7148L12.7162 38.688C12.5939 38.6454 12.4724 38.6015 12.3513 38.5566L12.274 38.5279C12.1532 38.4824 12.0329 38.4356 11.9132 38.3878L11.834 38.3561C11.7124 38.3068 11.5914 38.2562 11.471 38.2045L11.3857 38.1678C11.2672 38.1162 11.1493 38.0635 11.0319 38.0095L10.9372 37.9656C10.8239 37.9128 10.7112 37.859 10.599 37.8041L10.5063 37.7579C10.4004 37.7053 10.295 37.6521 10.1902 37.5975C10.1537 37.5785 10.1174 37.5591 10.081 37.54C9.98206 37.4876 9.88341 37.4345 9.78548 37.3806L9.66791 37.3151C9.57336 37.2621 9.47938 37.2084 9.38583 37.1539L9.26568 37.0835C9.17342 37.0288 9.08167 36.9733 8.99043 36.9171L8.87128 36.8435C8.77924 36.7859 8.68785 36.7275 8.59689 36.6684C8.55123 36.6387 8.50572 36.6091 8.46034 36.579C8.3765 36.5237 8.29317 36.4675 8.21026 36.4107C8.15913 36.3759 8.1083 36.3407 8.05753 36.3053C7.97851 36.2501 7.89977 36.1945 7.82161 36.1381C7.7725 36.1027 7.72361 36.0672 7.67478 36.0314C7.59698 35.9742 7.51961 35.9165 7.44268 35.8583C7.39285 35.8206 7.34337 35.7826 7.29398 35.7445C7.21351 35.6822 7.13334 35.6197 7.05389 35.5562C7.01376 35.5242 6.97378 35.4918 6.93395 35.4595C6.85507 35.3956 6.77669 35.331 6.69882 35.2659C6.65733 35.2311 6.61599 35.1961 6.57479 35.161C6.49907 35.0967 6.42386 35.0316 6.34915 34.966C6.30867 34.9305 6.26833 34.8948 6.22813 34.8589C6.15378 34.7926 6.08001 34.7256 6.00667 34.658C5.96705 34.6216 5.92736 34.585 5.88795 34.5482C5.80598 34.4715 5.72466 34.3941 5.64398 34.3161L5.54554 34.2199C5.47119 34.1469 5.39749 34.0732 5.32429 33.999C5.28539 33.9596 5.24663 33.9201 5.20802 33.8802C5.13798 33.8081 5.06852 33.7353 4.99957 33.662C4.9606 33.6206 4.92177 33.5789 4.88315 33.5372C4.81492 33.4634 4.74725 33.3891 4.6801 33.3142L4.56814 33.1884C4.50069 33.1118 4.43375 33.0347 4.36745 32.9571L4.26456 32.8358C4.19553 32.7536 4.12715 32.671 4.05948 32.5878L3.97449 32.4826C3.90295 32.3934 3.83219 32.3036 3.76216 32.2131C3.73412 32.1769 3.70629 32.1405 3.67853 32.1042C3.61252 32.0176 3.54716 31.9305 3.48252 31.8428C3.45354 31.8036 3.42478 31.7641 3.39609 31.7247C3.33202 31.6364 3.26868 31.5475 3.20598 31.4581L3.12264 31.3382C3.06094 31.2489 2.9999 31.1589 2.93964 31.0685L2.85918 30.9466C2.79892 30.8547 2.73939 30.7622 2.68057 30.6693L2.60845 30.5543C2.54805 30.4573 2.48851 30.3598 2.42976 30.2617L2.36742 30.1572C2.30666 30.0544 2.24698 29.9509 2.18802 29.8469L2.12784 29.7401C2.06866 29.6342 2.01041 29.5277 1.95311 29.4205L1.89817 29.3169C1.84381 29.2137 1.79024 29.11 1.73761 29.0058L1.67987 28.8903C1.6281 28.7861 1.57719 28.6814 1.52714 28.5762L1.47444 28.4643C1.42468 28.3578 1.37586 28.2509 1.32789 28.1435L1.27936 28.0339C1.23061 27.9228 1.18286 27.8112 1.13605 27.6991L1.09579 27.6022C1.04689 27.4832 0.999146 27.3637 0.95248 27.2437L0.917103 27.1521C0.870508 27.0305 0.825065 26.9084 0.780772 26.7856L0.747983 26.6936C0.704049 26.5698 0.661122 26.4456 0.619489 26.3208L0.592093 26.2373C0.55197 26.115 0.512998 25.9924 0.475104 25.8691L0.445408 25.7711C0.414489 25.6687 0.384792 25.5656 0.355527 25.4625C0.130321 24.5917 0.570019 23.671 1.39376 23.3383C5.58559 21.6455 11.9018 20.568 18.9671 20.568C26.0326 20.568 32.3487 21.6455 36.5405 23.3383C37.3643 23.671 37.804 24.5917 37.5787 25.4625ZM0.355455 14.404C0.385008 14.3 0.414848 14.196 0.446055 14.0926L0.474242 13.9999C0.512639 13.8748 0.552114 13.7504 0.592812 13.6265L0.618914 13.547C0.661122 13.4203 0.704696 13.2941 0.749349 13.1685L0.779549 13.0839C0.82449 12.9592 0.870653 12.8352 0.917894 12.7119L0.951545 12.6248C0.998931 12.5027 1.04747 12.3811 1.09722 12.2603L1.13397 12.1719C1.18207 12.0567 1.23104 11.9419 1.28116 11.8279L1.32646 11.7257C1.37485 11.6173 1.42418 11.5093 1.47444 11.4018L1.52657 11.2911C1.57719 11.1845 1.62882 11.0783 1.68131 10.9727L1.73524 10.8649C1.78902 10.7584 1.84367 10.6525 1.89925 10.5471L1.95303 10.4457C2.01034 10.3385 2.06859 10.232 2.12784 10.126L2.18802 10.0191C2.24741 9.91422 2.30767 9.80993 2.36886 9.70636L2.42789 9.60735C2.48743 9.50797 2.54783 9.40903 2.60902 9.31076L2.68057 9.19683C2.73974 9.10319 2.79964 9.01013 2.86033 8.91766L2.93964 8.79763C3.0004 8.70648 3.06195 8.61577 3.12415 8.52566L3.2049 8.40953C3.26817 8.31933 3.33202 8.22966 3.39674 8.14057L3.47806 8.02921C3.54479 7.93858 3.61238 7.84854 3.68062 7.75916L3.76201 7.65317C3.83277 7.56165 3.90431 7.47087 3.97672 7.38068L4.05905 7.27888C4.1283 7.19376 4.19819 7.10923 4.2688 7.02529L4.36422 6.91268C4.4331 6.83205 4.50256 6.752 4.57267 6.67254L4.67614 6.55618C4.74582 6.47835 4.81621 6.40117 4.88711 6.3245L4.99547 6.20837C5.06601 6.13339 5.13698 6.059 5.2086 5.98521C5.24699 5.94566 5.2856 5.90626 5.32429 5.86701C5.39749 5.79285 5.47119 5.71911 5.54554 5.64613L5.64398 5.54999C5.72458 5.47193 5.80598 5.3946 5.88795 5.31786C5.92728 5.28103 5.96697 5.2445 6.00667 5.20797C6.08008 5.14049 6.15378 5.07345 6.22813 5.00708C6.26811 4.97143 6.30823 4.93585 6.3485 4.9005C6.4245 4.83383 6.50101 4.76775 6.57795 4.70226C6.61721 4.66889 6.65647 4.6356 6.69602 4.60252C6.77504 4.53628 6.85471 4.47087 6.93481 4.40589C6.97429 4.37391 7.01369 4.34187 7.05338 4.31019C7.13449 4.2455 7.21625 4.1817 7.29836 4.11827C7.34345 4.0835 7.3886 4.04866 7.43398 4.01426C7.51422 3.9534 7.59497 3.89335 7.67615 3.83373C7.72447 3.79823 7.77293 3.76295 7.82161 3.72788C7.89977 3.67159 7.97851 3.61586 8.05753 3.56074C8.1083 3.52531 8.15913 3.49017 8.21026 3.45526C8.29324 3.39859 8.3765 3.34236 8.46034 3.28694C8.50572 3.25695 8.55123 3.22725 8.59689 3.19763C8.68785 3.1386 8.77924 3.0801 8.87128 3.02254C8.91054 2.99799 8.95009 2.97373 8.98949 2.94947C9.08232 2.89237 9.17558 2.83599 9.26934 2.78042L9.38173 2.71441C9.47693 2.65899 9.57257 2.6043 9.6687 2.55043L9.78548 2.48544C9.88341 2.43149 9.98199 2.37843 10.081 2.32609C10.1174 2.30683 10.1537 2.28749 10.1902 2.26853C10.295 2.214 10.4004 2.1607 10.5063 2.10808L10.599 2.06191C10.7111 2.00686 10.8239 1.9532 10.9372 1.90043L11.0319 1.85647C11.1493 1.80259 11.2672 1.74988 11.3857 1.69828L11.471 1.66154C11.5914 1.60986 11.7124 1.55915 11.834 1.50989L11.9132 1.47829C12.0329 1.43044 12.1532 1.38362 12.274 1.33812L12.3513 1.30945C12.4723 1.26447 12.5939 1.22058 12.7162 1.17803L12.7939 1.1512C12.9176 1.10879 13.0419 1.06755 13.1667 1.02757L13.2408 1.00389C13.3671 0.964053 13.4939 0.925537 13.6212 0.888197L13.6918 0.867543C13.8229 0.829614 13.9547 0.79323 14.087 0.758168L14.1467 0.742291C14.2872 0.705466 14.4284 0.670257 14.5702 0.636666L14.6004 0.629389C14.7519 0.593666 14.9041 0.559853 15.057 0.527806L15.0742 0.524278C15.2234 0.493112 15.3733 0.463857 15.5237 0.436219L15.5633 0.429163C15.7077 0.402996 15.8527 0.378445 15.9981 0.355512L16.0447 0.348381C16.1881 0.326183 16.3319 0.305602 16.4763 0.286638L16.5272 0.280096C16.671 0.261647 16.8153 0.244814 16.9601 0.229525L17.0105 0.224307C17.1572 0.209312 17.3043 0.195934 17.452 0.184247L17.4952 0.180792C17.6467 0.169178 17.7985 0.159402 17.9508 0.151317L17.9819 0.149627C18.1401 0.141541 18.2987 0.135293 18.4579 0.131103L18.4711 0.130662C18.6359 0.126473 18.8013 0.124268 18.9671 0.124268C19.133 0.124268 19.2983 0.126325 19.4632 0.130662L19.4762 0.131103C19.6354 0.135293 19.7942 0.141468 19.9526 0.149627L19.9831 0.151317C20.1356 0.159402 20.2876 0.169178 20.4392 0.180792L20.4821 0.184247C20.6299 0.195934 20.7772 0.209239 20.924 0.224307L20.9739 0.229452C21.1187 0.244668 21.2631 0.261573 21.4071 0.280096L21.458 0.286638C21.6023 0.305529 21.7462 0.326183 21.8896 0.348381L21.9362 0.355512C22.0821 0.378519 22.2276 0.403216 22.3725 0.429457L22.4099 0.436073C22.5612 0.463783 22.7119 0.493332 22.862 0.524645L22.8765 0.527586C23.03 0.559707 23.1827 0.593739 23.3348 0.629609L23.3624 0.636298C23.5048 0.670037 23.6464 0.705393 23.7876 0.742291L23.8472 0.758168C23.9795 0.79323 24.1113 0.829688 24.2425 0.867543L24.313 0.888197C24.4407 0.925684 24.568 0.964274 24.6946 1.00426L24.7671 1.02734C24.8926 1.06755 25.0178 1.10907 25.1422 1.15185L25.2165 1.17743C25.3396 1.22037 25.4622 1.26454 25.5842 1.30989L25.6601 1.33805C25.782 1.38383 25.9032 1.4311 26.0239 1.47939L26.0987 1.50924C26.2221 1.55915 26.3448 1.61052 26.4669 1.663L26.5442 1.6963C26.6644 1.74856 26.784 1.80201 26.9029 1.85669L26.9957 1.89983C27.1101 1.95313 27.224 2.0073 27.3371 2.0628L27.4248 2.10639C27.5318 2.1596 27.6383 2.21356 27.7443 2.26868L27.8514 2.32506C27.9511 2.37776 28.0504 2.43127 28.1492 2.48567L28.2636 2.54932C28.3604 2.60357 28.4568 2.65855 28.5525 2.71441L28.6649 2.78042C28.7587 2.83599 28.852 2.89237 28.9448 2.94947C28.9842 2.97373 29.0237 2.99799 29.063 3.02254C29.1555 3.08046 29.2474 3.13927 29.3389 3.19865C29.3818 3.22652 29.4247 3.25438 29.4673 3.28253C29.5534 3.33942 29.6389 3.39704 29.724 3.45526C29.7744 3.48973 29.8247 3.52436 29.8747 3.55927C29.9551 3.61535 30.0352 3.6721 30.1147 3.72936C30.1626 3.7639 30.2105 3.79875 30.2581 3.83373C30.3393 3.89335 30.4201 3.9534 30.5003 4.01426C30.5448 4.048 30.5892 4.08211 30.6335 4.11628C30.7172 4.18097 30.8006 4.24609 30.8833 4.3121C30.9219 4.3429 30.9601 4.37391 30.9984 4.40501C31.0788 4.47028 31.1589 4.536 31.2383 4.60252L31.3563 4.70226C31.4333 4.76775 31.5098 4.83383 31.5858 4.9005C31.626 4.93585 31.6662 4.97143 31.7061 5.00708C31.7804 5.07354 31.8543 5.14049 31.9276 5.20797C31.9673 5.24443 32.0069 5.28103 32.0463 5.31786C32.1283 5.39452 32.2097 5.47185 32.2903 5.54999L32.3887 5.64613C32.4636 5.71971 32.5379 5.79387 32.6116 5.86862C32.6498 5.90736 32.6879 5.94617 32.7257 5.98521C32.7973 6.059 32.8683 6.13339 32.9388 6.20837C32.975 6.24695 33.0112 6.28562 33.0472 6.3245C33.1181 6.40117 33.1885 6.47835 33.2581 6.55618L33.3616 6.67254C33.4326 6.75296 33.5028 6.83396 33.5725 6.91555L33.6643 7.02382C33.7355 7.10843 33.8061 7.19369 33.8759 7.27962L33.955 7.37737C34.0282 7.46874 34.1007 7.56084 34.1725 7.65345L34.2511 7.75577C34.3225 7.84927 34.3933 7.94343 34.463 8.03832L34.5342 8.13594C34.6013 8.22826 34.6676 8.32117 34.7331 8.41474L34.8065 8.52022C34.8714 8.61423 34.9355 8.70868 34.9988 8.8038L35.0697 8.91111C35.133 9.00756 35.1955 9.10465 35.2572 9.20226L35.3212 9.30414C35.3848 9.40624 35.4476 9.50893 35.5094 9.61227L35.563 9.70232C35.626 9.80883 35.6879 9.916 35.749 10.0238L35.8039 10.1214C35.8648 10.2303 35.9247 10.3397 35.9835 10.4498L36.0323 10.5419C36.0902 10.6517 36.1473 10.762 36.2032 10.873L36.25 10.9666C36.3044 11.076 36.3578 11.1859 36.4102 11.2964L36.4565 11.3946C36.509 11.5067 36.5604 11.6194 36.6109 11.7326L36.6498 11.8203C36.7014 11.9376 36.7519 12.0557 36.8013 12.1742L36.8354 12.2562C36.8857 12.3784 36.9347 12.5013 36.9827 12.6248L37.0164 12.7119C37.0638 12.8356 37.11 12.9598 37.155 13.0847L37.1836 13.1647C37.2287 13.2916 37.2727 13.4189 37.3154 13.547L37.3415 13.6265C37.3821 13.7504 37.4217 13.8748 37.46 13.9999L37.4882 14.0926C37.5194 14.196 37.5493 14.3 37.5788 14.404C37.8037 15.2747 37.3641 16.1951 36.5405 16.5277C32.3487 18.2205 26.0326 19.2981 18.9671 19.2981C11.9018 19.2981 5.58559 18.2205 1.39376 16.5277C0.570163 16.1951 0.130609 15.2747 0.355455 14.404Z" fill="#E7E8E9"/>
<path d="M35.2155 22.8472C33.8647 30.7701 27.1044 36.7938 18.9671 36.7938C10.8299 36.7938 4.06955 30.7701 2.71875 22.8472C6.86104 21.4395 12.6108 20.5673 18.9671 20.5673C25.3236 20.5673 31.0732 21.4395 35.2155 22.8472ZM2.71882 17.0174C4.06962 9.0944 10.8299 3.0708 18.9671 3.0708C27.1044 3.0708 33.8647 9.0944 35.2155 17.0174C31.0732 18.4251 25.3236 19.2974 18.9671 19.2974C12.6108 19.2974 6.86111 18.4251 2.71882 17.0174Z" fill="#B9BBBD"/>
<path d="M32.4236 22.0391C31.4302 28.7237 25.7839 33.8463 18.9671 33.8463C12.1505 33.8463 6.50418 28.7237 5.51074 22.0391C9.28545 21.1134 13.9363 20.5668 18.9671 20.5668C23.9981 20.5668 28.6488 21.1134 32.4236 22.0391ZM5.51081 17.8247C6.50425 11.1399 12.1505 6.01758 18.9671 6.01758C25.7839 6.01758 31.4301 11.1399 32.4235 17.8247C28.6488 18.7505 23.9981 19.297 18.9671 19.297C13.9363 19.297 9.28553 18.7505 5.51081 17.8247Z" fill="#8E9092"/>
<path d="M29.5934 21.4475C28.8719 26.7878 24.3897 30.9006 18.9671 30.9006C13.5446 30.9006 9.06238 26.7878 8.34082 21.4475C11.5153 20.8861 15.1307 20.5684 18.9671 20.5684C22.8036 20.5684 26.4189 20.8861 29.5934 21.4475ZM8.34082 18.4193C9.06238 13.079 13.5446 8.96631 18.9671 8.96631C24.3897 8.96631 28.8719 13.079 29.5934 18.4193C26.4189 18.9808 22.8036 19.2985 18.9671 19.2985C15.1307 19.2985 11.5153 18.9808 8.34082 18.4193Z" fill="#656668"/>
<path d="M26.7402 21.0239C26.2196 24.9371 22.9383 27.9531 18.9672 27.9531C14.9963 27.9531 11.715 24.9371 11.1943 21.0239C13.6208 20.729 16.238 20.5681 18.9672 20.5681C21.6965 20.5681 24.3138 20.729 26.7402 21.0239ZM11.1943 18.8423C11.715 14.929 14.9964 11.9131 18.9672 11.9131C22.9382 11.9131 26.2196 14.929 26.7402 18.8423C24.3138 19.1372 21.6965 19.2982 18.9672 19.2982C16.238 19.2982 13.6208 19.1372 11.1943 18.8423Z" fill="#231F20"/>
</g>
<defs>
<clipPath id="clip0_10_23">
<rect width="146" height="40" fill="white"/>
</clipPath>
</defs>
</svg>
