<svg width="24" height="24" viewBox="0 0 24 24" fill="none" xmlns="http://www.w3.org/2000/svg">
<path fill-rule="evenodd" clip-rule="evenodd" d="M11.9713 0C5.36059 0 0 5.50847 0 12.3038C0 17.74 3.43014 22.352 8.18669 23.9788C8.78497 24.0927 9.00462 23.712 9.00462 23.387C9.00462 23.0935 8.99353 22.1243 8.98837 21.0963C5.65795 21.8405 4.95519 19.6445 4.95519 19.6445C4.41063 18.2225 3.62599 17.8443 3.62599 17.8443C2.53985 17.0807 3.70787 17.0963 3.70787 17.0963C4.90999 17.1828 5.54296 18.3645 5.54296 18.3645C6.61069 20.2452 8.3435 19.7013 9.02663 19.387C9.13408 18.5918 9.44431 18.0488 9.78668 17.7418C7.12769 17.4307 4.33252 16.3757 4.33252 11.6612C4.33252 10.3179 4.80016 9.22032 5.56596 8.35868C5.44168 8.04858 5.03191 6.79737 5.68194 5.10262C5.68194 5.10262 6.68721 4.77193 8.97488 6.3638C9.92981 6.09118 10.9539 5.95447 11.9713 5.94978C12.9886 5.95447 14.0135 6.09118 14.9702 6.3638C17.2552 4.77193 18.259 5.10262 18.259 5.10262C18.9107 6.79737 18.5008 8.04858 18.3764 8.35868C19.1439 9.22032 19.6085 10.3179 19.6085 11.6612C19.6085 16.3869 16.8079 17.4273 14.1422 17.732C14.5716 18.1138 14.9542 18.8627 14.9542 20.0105C14.9542 21.6568 14.9403 22.9817 14.9403 23.387C14.9403 23.7143 15.1558 24.098 15.7626 23.9772C20.5166 22.3485 23.9423 17.7382 23.9423 12.3038C23.9423 5.50847 18.5825 0 11.9713 0Z" fill="#1B1817"/>
<path d="M4.53414 17.6655C4.50777 17.7268 4.4142 17.745 4.32895 17.703C4.24213 17.663 4.19335 17.5796 4.2215 17.5183C4.24727 17.4555 4.34105 17.438 4.42768 17.4798C4.51471 17.5201 4.56426 17.6043 4.53414 17.6655Z" fill="#1B1817"/>
<path d="M5.019 18.2213C4.96192 18.2758 4.8503 18.2505 4.77457 18.1645C4.69628 18.0788 4.68161 17.964 4.7395 17.9088C4.79836 17.8547 4.90661 17.8802 4.98511 17.9657C5.06342 18.0525 5.07868 18.1663 5.019 18.2213Z" fill="#1B1817"/>
<path d="M5.49102 18.93C5.41768 18.9824 5.29774 18.9334 5.2236 18.8239C5.15024 18.7145 5.15025 18.5832 5.22519 18.5307C5.29952 18.4782 5.41768 18.5255 5.49281 18.634C5.56596 18.7452 5.56596 18.8765 5.49102 18.93Z" fill="#1B1817"/>
<path d="M6.13768 19.6146C6.07207 19.689 5.9323 19.669 5.83001 19.5675C5.72535 19.4683 5.69621 19.3275 5.76201 19.2531C5.82842 19.1786 5.96898 19.1996 6.07207 19.3001C6.17593 19.3993 6.20765 19.541 6.13768 19.6146Z" fill="#1B1817"/>
<path d="M7.02973 20.0122C7.00078 20.1085 6.86617 20.1523 6.73057 20.1113C6.59518 20.0692 6.50656 19.9563 6.53394 19.8588C6.56207 19.7618 6.69728 19.7163 6.83385 19.76C6.96907 19.802 7.05788 19.9142 7.02973 20.0122Z" fill="#1B1817"/>
<path d="M8.00946 20.0858C8.01284 20.1873 7.89785 20.2715 7.75552 20.2733C7.61239 20.2765 7.49661 20.1945 7.49504 20.0947C7.49504 19.9922 7.60743 19.9088 7.75056 19.9063C7.8929 19.9035 8.00946 19.985 8.00946 20.0858Z" fill="#1B1817"/>
<path d="M8.92114 19.9263C8.93818 20.0253 8.83926 20.127 8.69792 20.1541C8.55895 20.1801 8.43031 20.1191 8.41267 20.0208C8.39541 19.9193 8.49611 19.8176 8.63489 19.7915C8.77643 19.7661 8.90311 19.8256 8.92114 19.9263Z" fill="#1B1817"/>
</svg>
