<svg width="200" height="200" viewBox="0 0 200 200" fill="none" xmlns="http://www.w3.org/2000/svg">
<circle cx="100" cy="100" r="99" stroke="#4D4D4D" stroke-width="2" stroke-dasharray="4 4"/>
<path d="M44.9767 73.7171L49.8767 65.23L56.0359 68.786L51.1359 77.2731L49.8628 76.5381L54.0908 69.215L50.4899 67.136L46.2619 74.4591L44.9767 73.7171ZM55.6924 80.0331C55.2478 79.7764 54.884 79.464 54.6008 79.0957C54.3257 78.7322 54.1318 78.34 54.0191 77.9193C53.911 77.4905 53.8939 77.0441 53.9678 76.5802C54.0416 76.1163 54.2069 75.6621 54.4635 75.2175L54.6595 74.878C54.9209 74.4254 55.2316 74.0552 55.5918 73.7673C55.9566 73.4715 56.3494 73.2671 56.7701 73.1544C57.1955 73.0336 57.6344 73.0014 58.0868 73.0578C58.5473 73.1189 58.9998 73.2778 59.4444 73.5344L59.5656 73.6044C60.0102 73.8611 60.37 74.1712 60.645 74.5348C60.9282 74.9031 61.1238 75.3016 61.2319 75.7304C61.3446 76.1511 61.3641 76.5935 61.2902 77.0573C61.221 77.5132 61.0558 77.9674 60.7945 78.42L60.5985 78.7595C60.3418 79.2041 60.031 79.5743 59.6662 79.8702C59.3014 80.1661 58.9063 80.3745 58.4809 80.4953C58.0601 80.608 57.6195 80.6338 57.159 80.5727C56.7066 80.5163 56.2582 80.3598 55.8136 80.1031L55.6924 80.0331ZM56.3135 78.9853L56.4105 79.0413C56.6772 79.1953 56.9477 79.2868 57.2219 79.3158C57.4962 79.3448 57.7614 79.3147 58.0177 79.2256C58.2786 79.1283 58.5218 78.9777 58.7473 78.7738C58.9774 78.5619 59.1789 78.3063 59.3515 78.0073L59.5265 77.7042C59.7039 77.397 59.8204 77.0925 59.8761 76.7906C59.94 76.4933 59.9465 76.2115 59.8955 75.945C59.8446 75.6785 59.7381 75.4338 59.5758 75.2108C59.4136 74.9878 59.2031 74.8016 58.9445 74.6523L58.8475 74.5963C58.5808 74.4423 58.3103 74.3508 58.036 74.3218C57.7699 74.2974 57.5087 74.3298 57.2524 74.419C56.9962 74.5081 56.7513 74.6523 56.5177 74.8516C56.2841 75.0508 56.0787 75.304 55.9013 75.6112L55.7263 75.9143C55.5537 76.2133 55.4331 76.5155 55.3646 76.8208C55.3088 77.1227 55.3041 77.411 55.3503 77.6856C55.4012 77.9521 55.5078 78.1968 55.67 78.4198C55.8323 78.6428 56.0468 78.8313 56.3135 78.9853ZM62.8272 84.1362C62.3826 83.8795 62.0164 83.5711 61.7286 83.211C61.4455 82.8427 61.2498 82.4442 61.1418 82.0154C61.0418 81.5912 61.0264 81.1512 61.0956 80.6954C61.1694 80.2315 61.337 79.7733 61.5983 79.3206L61.7873 78.9933C62.044 78.5487 62.3547 78.1785 62.7196 77.8826C63.0925 77.5914 63.4852 77.387 63.8979 77.2696C64.3233 77.1488 64.7599 77.1207 65.2076 77.1852C65.66 77.2416 66.1044 77.3958 66.5409 77.6478L66.6379 77.7038C67.1795 78.0165 67.5955 78.4345 67.8861 78.9579C68.1894 79.4779 68.3425 80.062 68.3454 80.7103L67.1071 80.7552C67.1218 80.3003 67.0368 79.9063 66.8519 79.5732C66.6797 79.2367 66.4118 78.9635 66.048 78.7535L65.9389 78.6905C65.6722 78.5365 65.4017 78.445 65.1275 78.416C64.8613 78.3917 64.6001 78.4241 64.3439 78.5132C64.0957 78.607 63.8589 78.7559 63.6334 78.9598C63.4079 79.1637 63.2041 79.4233 63.0221 79.7385L62.8541 80.0295C62.6768 80.3366 62.5562 80.6388 62.4924 80.9361C62.4366 81.238 62.4342 81.5222 62.4851 81.7887C62.5441 82.0598 62.6547 82.3069 62.8169 82.5299C62.9873 82.7576 63.2058 82.9484 63.4725 83.1024L63.5938 83.1724C63.9252 83.3637 64.2732 83.4515 64.638 83.4358C65.0155 83.4166 65.3928 83.295 65.7701 83.0709L66.3555 84.1849C65.7845 84.5019 65.2061 84.6637 64.6203 84.6704C64.0392 84.6689 63.4778 84.5119 62.9363 84.1992L62.8272 84.1362ZM66.83 86.3341L70.47 80.0294L71.7431 80.7644L71.3959 85.8179L71.505 85.8809L75.7078 83.0534L76.9808 83.7884L73.3408 90.0931L72.1769 89.4211L74.5919 85.2382L74.4706 85.1682L71.1318 87.3952L70.271 86.8982L70.5111 82.8983L70.402 82.8353L67.994 87.0061L66.83 86.3341ZM77.7388 92.7616C77.2942 92.5049 76.9304 92.1925 76.6472 91.8243C76.3722 91.4607 76.1783 91.0685 76.0655 90.6478C75.9575 90.219 75.9404 89.7726 76.0142 89.3087C76.088 88.8448 76.2533 88.3906 76.51 87.946L76.706 87.6065C76.9673 87.1539 77.278 86.7837 77.6382 86.4959C78.003 86.2 78.3958 85.9957 78.8165 85.8829C79.2419 85.7621 79.6808 85.7299 80.1332 85.7863C80.5937 85.8474 81.0462 86.0063 81.4908 86.263L81.612 86.333C82.0566 86.5896 82.4164 86.8997 82.6915 87.2633C82.9746 87.6316 83.1702 88.0301 83.2783 88.4589C83.391 88.8797 83.4105 89.322 83.3366 89.7859C83.2675 90.2417 83.1022 90.6959 82.8409 91.1485L82.6449 91.488C82.3882 91.9326 82.0775 92.3028 81.7126 92.5987C81.3478 92.8946 80.9527 93.103 80.5273 93.2238C80.1066 93.3365 79.666 93.3623 79.2055 93.3013C78.7531 93.2448 78.3046 93.0883 77.86 92.8316L77.7388 92.7616ZM78.3599 91.7138L78.4569 91.7698C78.7237 91.9238 78.9941 92.0153 79.2684 92.0443C79.5426 92.0733 79.8079 92.0432 80.0641 91.9541C80.325 91.8568 80.5682 91.7063 80.7937 91.5024C81.0239 91.2904 81.2253 91.0348 81.398 90.7358L81.573 90.4327C81.7503 90.1255 81.8668 89.821 81.9226 89.5191C81.9864 89.2219 81.9929 88.94 81.942 88.6735C81.8911 88.407 81.7845 88.1623 81.6223 87.9393C81.46 87.7163 81.2496 87.5301 80.9909 87.3808L80.8939 87.3248C80.6272 87.1708 80.3567 87.0793 80.0825 87.0503C79.8163 87.0259 79.5551 87.0583 79.2989 87.1475C79.0426 87.2367 78.7977 87.3809 78.5641 87.5801C78.3306 87.7793 78.1251 88.0325 77.9478 88.3397L77.7728 88.6428C77.6001 88.9418 77.4795 89.244 77.411 89.5494C77.3553 89.8513 77.3505 90.1395 77.3967 90.4141C77.4477 90.6806 77.5542 90.9253 77.7165 91.1483C77.8787 91.3713 78.0932 91.5598 78.3599 91.7138ZM83.3152 95.8518L86.3532 90.5898L84.4618 89.4978L85.0638 88.4551L90.0348 91.3251L89.4328 92.3678L87.5535 91.2828L84.5155 96.5448L83.3152 95.8518ZM86.1622 100.729L91.2022 91.9992L92.1479 92.5452C92.1242 92.6608 92.0842 92.8048 92.0279 92.977C91.9762 93.1412 91.9211 93.2926 91.8626 93.4313C92.2719 93.3011 92.6906 93.2572 93.1187 93.2997C93.5596 93.3387 93.9943 93.4818 94.4227 93.7292L94.5197 93.7852C94.9319 94.0232 95.2674 94.3193 95.5263 94.6735C95.7899 95.0197 95.9636 95.4002 96.0474 95.815C96.1393 96.2345 96.1443 96.6738 96.0624 97.1331C95.9851 97.5842 95.8158 98.0361 95.5545 98.4888L95.3585 98.8282C95.1018 99.2728 94.7951 99.6454 94.4384 99.9459C94.0816 100.246 93.6987 100.462 93.2894 100.592C92.8883 100.727 92.4696 100.771 92.0333 100.724C91.6018 100.668 91.1799 100.522 90.7677 100.284L90.6707 100.228C90.2665 99.9945 89.9384 99.7135 89.6863 99.3847C89.4389 99.0479 89.2687 98.6801 89.1755 98.2815L87.3625 101.422L86.1622 100.729ZM91.0735 99.054L91.1705 99.11C91.4292 99.2593 91.6956 99.3485 91.9699 99.3775C92.2441 99.4065 92.5094 99.3764 92.7656 99.2873C93.0265 99.19 93.2737 99.0418 93.5073 98.8426C93.7409 98.6433 93.9464 98.3901 94.1237 98.083L94.2987 97.7799C94.476 97.4727 94.5926 97.1682 94.6483 96.8663C94.7041 96.5644 94.7065 96.2802 94.6556 96.0137C94.6047 95.7472 94.4981 95.5025 94.3359 95.2795C94.1736 95.0565 93.9632 94.8703 93.7045 94.721L93.6075 94.665C93.3408 94.511 93.0703 94.4195 92.7961 94.3905C92.5218 94.3615 92.2543 94.3956 91.9934 94.4928C91.7371 94.582 91.4922 94.7262 91.2586 94.9254C91.0331 95.1293 90.8341 95.3808 90.6614 95.6799L90.4864 95.983C90.3091 96.2901 90.1925 96.5947 90.1368 96.8966C90.081 97.1985 90.0762 97.4867 90.1225 97.7613C90.1734 98.0278 90.28 98.2725 90.4422 98.4955C90.6044 98.7185 90.8149 98.9047 91.0735 99.054ZM97.5951 104.226C97.1424 103.964 96.7722 103.654 96.4844 103.293C96.2013 102.925 96.0033 102.531 95.8906 102.11C95.7906 101.686 95.7752 101.246 95.8444 100.79C95.9182 100.326 96.0881 99.8638 96.3541 99.4031L96.4871 99.1727C96.7578 98.7039 97.0779 98.3175 97.4474 98.0135C97.8215 97.7015 98.2173 97.4827 98.6346 97.3572C99.0646 97.2283 99.5059 97.1921 99.9583 97.2485C100.419 97.3096 100.875 97.4708 101.328 97.7321L101.437 97.7951C101.849 98.0331 102.183 98.3229 102.439 98.6644C102.707 99.0024 102.884 99.3685 102.969 99.7624C103.066 100.153 103.075 100.568 102.994 101.006C102.926 101.441 102.766 101.877 102.514 102.313L102.08 103.065L97.4247 100.377C97.2996 100.649 97.2226 100.923 97.1935 101.197C97.1692 101.463 97.1895 101.717 97.2544 101.96C97.3321 102.199 97.4543 102.425 97.6212 102.64C97.8009 102.852 98.0241 103.035 98.2908 103.189L98.4121 103.259C98.8162 103.492 99.2087 103.605 99.5896 103.599C99.9705 103.593 100.322 103.515 100.645 103.368L101.022 104.507C100.764 104.617 100.496 104.699 100.217 104.753C99.9374 104.807 99.6583 104.824 99.3794 104.803C99.1005 104.782 98.8234 104.73 98.5483 104.647C98.2685 104.571 97.9952 104.457 97.7285 104.303L97.5951 104.226ZM97.9879 99.4572L101.468 101.466L101.475 101.454C101.608 101.186 101.695 100.924 101.735 100.667C101.776 100.41 101.765 100.167 101.704 99.9374C101.642 99.7079 101.538 99.4968 101.39 99.3039C101.243 99.1111 101.052 98.947 100.818 98.8117L100.697 98.7417C100.462 98.6064 100.221 98.5208 99.9719 98.4849C99.7312 98.4538 99.4961 98.4689 99.2667 98.5304C99.0372 98.5919 98.8132 98.6997 98.5949 98.8539C98.3766 99.008 98.1743 99.2092 97.9879 99.4572ZM102.911 107.165L105.949 101.903L104.057 100.811L104.659 99.7686L109.63 102.639L109.028 103.681L107.149 102.596L104.111 107.858L102.911 107.165ZM107.158 109.617L110.798 103.313L111.986 103.999L110.768 106.108L112.308 106.997C112.631 107.184 112.892 107.404 113.09 107.659C113.292 107.905 113.435 108.171 113.518 108.456C113.606 108.733 113.629 109.021 113.586 109.319C113.551 109.623 113.447 109.924 113.274 110.223L113.162 110.417C112.99 110.716 112.781 110.956 112.536 111.138C112.299 111.325 112.032 111.451 111.735 111.517C111.451 111.579 111.15 111.588 110.831 111.544C110.516 111.491 110.197 111.372 109.874 111.185L107.158 109.617ZM108.915 109.29L110.394 110.144C110.693 110.317 110.985 110.361 111.27 110.278C111.568 110.191 111.806 109.995 111.983 109.687L112.06 109.554C112.242 109.239 112.294 108.935 112.215 108.641C112.145 108.353 111.96 108.122 111.661 107.949L110.182 107.095L108.915 109.29ZM116.654 115.1L120.294 108.795L121.494 109.488L119.933 112.192L119.993 112.227L124.113 111L125.531 111.819L121 113.115L122.013 118.194L120.497 117.319L119.691 112.779L119.618 112.737L117.854 115.793L116.654 115.1ZM122.382 121.624C122.237 121.54 122.076 121.426 121.901 121.282C121.725 121.137 121.587 120.976 121.484 120.799L122.093 119.744C122.189 119.896 122.296 120.028 122.415 120.139C122.533 120.251 122.661 120.347 122.799 120.426C123.082 120.589 123.39 120.643 123.724 120.588C124.065 120.538 124.407 120.385 124.749 120.129L125.827 111.99L127.136 112.746L126.206 118.949L126.29 118.998L130.773 114.846L132.01 115.56L126.001 120.9C125.714 121.155 125.425 121.366 125.135 121.532C124.84 121.707 124.538 121.829 124.228 121.898C123.927 121.972 123.621 121.989 123.31 121.949C123.006 121.915 122.697 121.806 122.382 121.624ZM127.97 124.866L133.01 116.137L133.956 116.683C133.932 116.799 133.892 116.942 133.836 117.115C133.784 117.279 133.729 117.43 133.67 117.569C134.08 117.439 134.498 117.395 134.926 117.437C135.367 117.476 135.802 117.62 136.23 117.867L136.327 117.923C136.74 118.161 137.075 118.457 137.334 118.811C137.598 119.157 137.771 119.538 137.855 119.953C137.947 120.372 137.952 120.812 137.87 121.271C137.793 121.722 137.624 122.174 137.362 122.626L137.166 122.966C136.91 123.41 136.603 123.783 136.246 124.084C135.889 124.384 135.506 124.6 135.097 124.73C134.696 124.865 134.277 124.908 133.841 124.861C133.409 124.806 132.988 124.66 132.575 124.422L132.478 124.366C132.074 124.132 131.746 123.851 131.494 123.522C131.247 123.186 131.076 122.818 130.983 122.419L129.17 125.559L127.97 124.866ZM132.881 123.192L132.978 123.248C133.237 123.397 133.503 123.486 133.778 123.515C134.052 123.544 134.317 123.514 134.573 123.425C134.834 123.328 135.081 123.18 135.315 122.98C135.549 122.781 135.754 122.528 135.931 122.221L136.106 121.918C136.284 121.61 136.4 121.306 136.456 121.004C136.512 120.702 136.514 120.418 136.463 120.151C136.412 119.885 136.306 119.64 136.144 119.417C135.981 119.194 135.771 119.008 135.512 118.859L135.415 118.803C135.149 118.649 134.878 118.557 134.604 118.528C134.33 118.499 134.062 118.533 133.801 118.631C133.545 118.72 133.3 118.864 133.066 119.063C132.841 119.267 132.642 119.519 132.469 119.818L132.294 120.121C132.117 120.428 132 120.732 131.944 121.034C131.889 121.336 131.884 121.624 131.93 121.899C131.981 122.165 132.088 122.41 132.25 122.633C132.412 122.856 132.623 123.042 132.881 123.192ZM139.398 128.344C138.953 128.088 138.587 127.779 138.299 127.419C138.016 127.051 137.82 126.652 137.712 126.223C137.612 125.799 137.597 125.359 137.666 124.903C137.74 124.44 137.908 123.981 138.169 123.529L138.358 123.201C138.615 122.757 138.925 122.386 139.29 122.091C139.663 121.799 140.056 121.595 140.468 121.478C140.894 121.357 141.33 121.329 141.778 121.393C142.231 121.45 142.675 121.604 143.111 121.856L143.208 121.912C143.75 122.224 144.166 122.643 144.457 123.166C144.76 123.686 144.913 124.27 144.916 124.918L143.678 124.963C143.692 124.508 143.607 124.114 143.422 123.781C143.25 123.445 142.982 123.172 142.619 122.962L142.509 122.899C142.243 122.745 141.972 122.653 141.698 122.624C141.432 122.6 141.171 122.632 140.914 122.721C140.666 122.815 140.429 122.964 140.204 123.168C139.978 123.372 139.775 123.631 139.593 123.947L139.425 124.238C139.247 124.545 139.127 124.847 139.063 125.144C139.007 125.446 139.005 125.73 139.056 125.997C139.115 126.268 139.225 126.515 139.387 126.738C139.558 126.966 139.776 127.156 140.043 127.31L140.164 127.38C140.496 127.572 140.844 127.66 141.208 127.644C141.586 127.625 141.963 127.503 142.341 127.279L142.926 128.393C142.355 128.71 141.777 128.872 141.191 128.878C140.61 128.877 140.048 128.72 139.507 128.407L139.398 128.344ZM143.401 130.542L147.041 124.237L148.241 124.93L147.023 127.04L148.478 127.88C148.793 128.062 149.05 128.28 149.248 128.535C149.45 128.781 149.593 129.047 149.676 129.332C149.768 129.622 149.796 129.918 149.761 130.221C149.726 130.525 149.625 130.822 149.457 131.113L149.345 131.307C149.172 131.606 148.963 131.846 148.718 132.028C148.481 132.214 148.214 132.341 147.918 132.406C147.634 132.469 147.328 132.476 147.001 132.427C146.686 132.374 146.367 132.255 146.044 132.068L143.401 130.542ZM145.145 130.208L146.576 131.034C146.875 131.206 147.167 131.251 147.452 131.168C147.75 131.081 147.988 130.884 148.165 130.577L148.242 130.444C148.415 130.145 148.464 129.845 148.39 129.543C148.317 129.242 148.134 129.007 147.843 128.839L146.412 128.013L145.145 130.208ZM149.184 133.881L152.824 127.576L154 128.255L150.36 134.56L149.184 133.881Z" fill="white"/>
</svg>
